<svg width="24" height="24" viewBox="0 0 24 24" fill="none" xmlns="http://www.w3.org/2000/svg">
<path d="M18.9625 11.9289L13.425 6.47265C13.4135 6.46112 13.3999 6.45198 13.3849 6.44573C13.3699 6.43949 13.3538 6.43628 13.3375 6.43628C13.3212 6.43628 13.3051 6.43949 13.2901 6.44573C13.2751 6.45198 13.2615 6.46112 13.25 6.47265L9.52031 10.1477C9.49684 10.1709 9.48351 10.2025 9.48322 10.2356C9.48292 10.2687 9.49569 10.3005 9.51875 10.3242L9.52031 10.3258L10.1453 10.9414L8.31406 12.743C8.29059 12.7662 8.27726 12.7979 8.27697 12.8309C8.27667 12.864 8.28944 12.8958 8.3125 12.9195L8.31406 12.9211L8.93125 13.5289L5.97656 16.4508H5.12656C5.05781 16.4508 5 16.507 5 16.5758V17.4383C5 17.507 5.05625 17.5633 5.125 17.5633H10.5141C10.5469 17.5633 10.5781 17.5508 10.6016 17.5273L11.7906 16.3461L12.4219 16.968C12.4333 16.9795 12.447 16.9886 12.462 16.9949C12.477 17.0011 12.4931 17.0043 12.5094 17.0043C12.5256 17.0043 12.5417 17.0011 12.5568 16.9949C12.5718 16.9886 12.5854 16.9795 12.5969 16.968L14.4266 15.1617L15.0531 15.7789C15.0646 15.7904 15.0782 15.7996 15.0932 15.8058C15.1083 15.8121 15.1244 15.8153 15.1406 15.8153C15.1569 15.8153 15.173 15.8121 15.188 15.8058C15.203 15.7996 15.2167 15.7904 15.2281 15.7789L18.9578 12.1039C19.0109 12.057 19.0109 11.9789 18.9625 11.9289V11.9289ZM10.0906 16.4414H7.5875L9.6875 14.3633L10.9391 15.5961L10.0906 16.4414ZM12.5094 15.4711L9.83125 12.832L10.9031 11.7758L13.5813 14.4148L12.5094 15.4711V15.4711ZM15.1422 14.282L11.0359 10.2367L13.3375 7.96953L17.4438 12.0164L15.1422 14.282V14.282Z" fill="white"/>
</svg>
