<svg width="16" height="16" viewBox="0 0 16 16" fill="none" xmlns="http://www.w3.org/2000/svg">
<g clip-path="url(#clip0_2375_46084)">
<path d="M14.5 3C14.6326 3 14.7598 3.05268 14.8536 3.14645C14.9473 3.24021 15 3.36739 15 3.5V12.5C15 12.6326 14.9473 12.7598 14.8536 12.8536C14.7598 12.9473 14.6326 13 14.5 13H1.5C1.36739 13 1.24021 12.9473 1.14645 12.8536C1.05268 12.7598 1 12.6326 1 12.5V3.5C1 3.36739 1.05268 3.24021 1.14645 3.14645C1.24021 3.05268 1.36739 3 1.5 3H14.5ZM1.5 2C1.10218 2 0.720644 2.15804 0.43934 2.43934C0.158035 2.72064 0 3.10218 0 3.5L0 12.5C0 12.8978 0.158035 13.2794 0.43934 13.5607C0.720644 13.842 1.10218 14 1.5 14H14.5C14.8978 14 15.2794 13.842 15.5607 13.5607C15.842 13.2794 16 12.8978 16 12.5V3.5C16 3.10218 15.842 2.72064 15.5607 2.43934C15.2794 2.15804 14.8978 2 14.5 2H1.5Z" fill="black"/>
<path d="M3.33301 5.83301C3.33301 5.7004 3.38569 5.57322 3.47945 5.47945C3.57322 5.38569 3.7004 5.33301 3.83301 5.33301H12.833C12.9656 5.33301 13.0928 5.38569 13.1866 5.47945C13.2803 5.57322 13.333 5.7004 13.333 5.83301C13.333 5.96562 13.2803 6.09279 13.1866 6.18656C13.0928 6.28033 12.9656 6.33301 12.833 6.33301H3.83301C3.7004 6.33301 3.57322 6.28033 3.47945 6.18656C3.38569 6.09279 3.33301 5.96562 3.33301 5.83301ZM3.33301 8.33301C3.33301 8.2004 3.38569 8.07322 3.47945 7.97945C3.57322 7.88569 3.7004 7.83301 3.83301 7.83301H12.833C12.9656 7.83301 13.0928 7.88569 13.1866 7.97945C13.2803 8.07322 13.333 8.2004 13.333 8.33301C13.333 8.46562 13.2803 8.59279 13.1866 8.68656C13.0928 8.78033 12.9656 8.83301 12.833 8.83301H3.83301C3.7004 8.83301 3.57322 8.78033 3.47945 8.68656C3.38569 8.59279 3.33301 8.46562 3.33301 8.33301ZM3.33301 10.833C3.33301 10.7004 3.38569 10.5732 3.47945 10.4795C3.57322 10.3857 3.7004 10.333 3.83301 10.333H9.83301C9.96562 10.333 10.0928 10.3857 10.1866 10.4795C10.2803 10.5732 10.333 10.7004 10.333 10.833C10.333 10.9656 10.2803 11.0928 10.1866 11.1866C10.0928 11.2803 9.96562 11.333 9.83301 11.333H3.83301C3.7004 11.333 3.57322 11.2803 3.47945 11.1866C3.38569 11.0928 3.33301 10.9656 3.33301 10.833Z" fill="black"/>
</g>
<defs>
<clipPath id="clip0_2375_46084">
<rect width="16" height="16" fill="white"/>
</clipPath>
</defs>
</svg>
