<svg width="32" height="32" viewBox="0 0 32 32" fill="none" xmlns="http://www.w3.org/2000/svg">
<path d="M21.4192 11.0865C21.4192 10.949 21.3067 10.8365 21.1692 10.8365L19.1067 10.8458L16.0005 14.549L12.8974 10.849L10.8318 10.8396C10.6943 10.8396 10.5818 10.949 10.5818 11.0896C10.5818 11.149 10.6036 11.2052 10.6411 11.2521L14.7068 16.0958L10.6411 20.9365C10.6034 20.9823 10.5824 21.0396 10.5818 21.099C10.5818 21.2365 10.6943 21.349 10.8318 21.349L12.8974 21.3396L16.0005 17.6365L19.1036 21.3365L21.1661 21.3458C21.3036 21.3458 21.4161 21.2365 21.4161 21.0958C21.4161 21.0365 21.3942 20.9802 21.3567 20.9333L17.2974 16.0927L21.363 11.249C21.4005 11.2052 21.4192 11.1458 21.4192 11.0865Z" fill="#313131"/>
<path d="M16 2.03125C8.26875 2.03125 2 8.3 2 16.0313C2 23.7625 8.26875 30.0313 16 30.0313C23.7313 30.0313 30 23.7625 30 16.0313C30 8.3 23.7313 2.03125 16 2.03125ZM16 27.6563C9.58125 27.6563 4.375 22.45 4.375 16.0313C4.375 9.6125 9.58125 4.40625 16 4.40625C22.4188 4.40625 27.625 9.6125 27.625 16.0313C27.625 22.45 22.4188 27.6563 16 27.6563Z" fill="#313131"/>
</svg>
