<svg width="16" height="16" viewBox="0 0 16 16" fill="none" xmlns="http://www.w3.org/2000/svg">
<path d="M14.7894 7.89152L8.75192 1.85714L8.34723 1.45246C8.25502 1.36086 8.13033 1.30945 8.00036 1.30945C7.87039 1.30945 7.74569 1.36086 7.65348 1.45246L1.2113 7.89152C1.11681 7.98563 1.04214 8.09772 0.991689 8.22117C0.941237 8.34462 0.916026 8.47692 0.917545 8.61027C0.923795 9.16027 1.38161 9.59933 1.93161 9.59933H2.59567V14.6884H13.405V9.59933H14.0832C14.3504 9.59933 14.6019 9.49464 14.791 9.30558C14.8841 9.21279 14.9578 9.10245 15.008 8.98095C15.0581 8.85945 15.0837 8.72921 15.0832 8.59777C15.0832 8.33214 14.9785 8.08058 14.7894 7.89152V7.89152ZM8.87536 13.5634H7.12536V10.3759H8.87536V13.5634ZM12.28 8.47433V13.5634H9.87536V10.0009C9.87536 9.65558 9.59567 9.37589 9.25036 9.37589H6.75036C6.40504 9.37589 6.12536 9.65558 6.12536 10.0009V13.5634H3.72067V8.47433H2.22067L8.00192 2.69777L8.36286 3.05871L13.7816 8.47433H12.28Z" fill="white"/>
</svg>
