<svg width="16" height="16" viewBox="0 0 16 16" fill="none" xmlns="http://www.w3.org/2000/svg">
<path d="M10.5625 8.82812C9.76875 8.82812 9.125 9.47188 9.125 10.2656C9.125 11.0594 9.76875 11.7031 10.5625 11.7031C11.3562 11.7031 12 11.0594 12 10.2656C12 9.47188 11.3562 8.82812 10.5625 8.82812ZM10.5625 10.7969C10.2688 10.7969 10.0312 10.5594 10.0312 10.2656C10.0312 9.97188 10.2688 9.73438 10.5625 9.73438C10.8562 9.73438 11.0938 9.97188 11.0938 10.2656C11.0938 10.5594 10.8562 10.7969 10.5625 10.7969ZM13.75 2.625H10.4375C10.4375 2.14219 10.0453 1.75 9.5625 1.75H8.3125C7.82969 1.75 7.4375 2.14219 7.4375 2.625H4.125C3.84844 2.625 3.625 2.84844 3.625 3.125V6.25H2.25C1.97344 6.25 1.75 6.47344 1.75 6.75V13.75C1.75 14.0266 1.97344 14.25 2.25 14.25H7.5C7.77656 14.25 8 14.0266 8 13.75V13.5H13.75C14.0266 13.5 14.25 13.2766 14.25 13V3.125C14.25 2.84844 14.0266 2.625 13.75 2.625ZM7.3125 3.625H8.4375V2.75H9.4375V3.625H10.5625V4.375H7.3125V3.625ZM7 13.25H2.75V9.625H7V13.25ZM7 8.625H2.75V7.25H7V8.625ZM13.125 12.375H8V6.75C8 6.47344 7.77656 6.25 7.5 6.25H4.75V3.75H6.3125V5.375H11.5625V3.75H13.125V12.375ZM11 6.375V7.875C11 7.94375 11.0562 8 11.125 8H11.875C11.9438 8 12 7.94375 12 7.875V6.375C12 6.30625 11.9438 6.25 11.875 6.25H11.125C11.0562 6.25 11 6.30625 11 6.375ZM9.25 8H10C10.0688 8 10.125 7.94375 10.125 7.875V7C10.125 6.93125 10.0688 6.875 10 6.875H9.25C9.18125 6.875 9.125 6.93125 9.125 7V7.875C9.125 7.94375 9.18125 8 9.25 8Z" fill="white"/>
</svg>
