<svg width="24" height="24" viewBox="0 0 24 24" fill="none" xmlns="http://www.w3.org/2000/svg">
<path d="M3.93707 11.8172C3.96051 10.793 4.17145 9.79922 4.56754 8.86406C4.97301 7.90313 5.55426 7.04297 6.29488 6.3C7.03551 5.55703 7.89801 4.97578 8.85895 4.57031C9.8527 4.15078 10.9074 3.9375 11.9972 3.9375C13.0871 3.9375 14.1418 4.15078 15.1332 4.57031C16.0913 4.97495 16.9615 5.56246 17.6949 6.3C17.9269 6.53203 18.1449 6.77813 18.3464 7.03594L16.9355 8.1375C16.9076 8.1591 16.8863 8.18813 16.8742 8.22127C16.862 8.25441 16.8595 8.2903 16.8668 8.32483C16.8742 8.35935 16.8911 8.39109 16.9157 8.41642C16.9403 8.44174 16.9715 8.45961 17.0058 8.46797L21.1238 9.47578C21.241 9.50391 21.3558 9.41484 21.3558 9.29531L21.3746 5.05547C21.3746 4.89844 21.1941 4.80937 21.0722 4.90781L19.7504 5.94141C17.948 3.63516 15.1449 2.15625 11.9949 2.15625C6.62535 2.15625 2.2566 6.45937 2.15582 11.8078C2.15519 11.8328 2.15958 11.8577 2.16872 11.881C2.17787 11.9043 2.19158 11.9255 2.20905 11.9434C2.22653 11.9613 2.24741 11.9756 2.27047 11.9853C2.29353 11.995 2.3183 12 2.34332 12H3.74957C3.8527 12 3.93473 11.918 3.93707 11.8172ZM21.6558 12H20.2496C20.1464 12 20.0644 12.082 20.0621 12.1828C20.0386 13.207 19.8277 14.2008 19.4316 15.1359C19.0261 16.0969 18.4449 16.9594 17.7043 17.7C16.9567 18.4506 16.068 19.0458 15.0893 19.4513C14.1106 19.8568 13.0613 20.0645 12.0019 20.0625C10.9429 20.0645 9.89398 19.8567 8.91566 19.4513C7.93735 19.0458 7.04902 18.4506 6.30191 17.7C6.06988 17.468 5.85191 17.2219 5.65035 16.9641L7.06129 15.8625C7.08921 15.8409 7.11046 15.8119 7.12261 15.7787C7.13476 15.7456 7.1373 15.7097 7.12996 15.6752C7.12261 15.6407 7.10567 15.6089 7.08109 15.5836C7.0565 15.5583 7.02527 15.5404 6.99098 15.532L2.87301 14.5242C2.75582 14.4961 2.64098 14.5852 2.64098 14.7047L2.62457 18.9469C2.62457 19.1039 2.80504 19.193 2.92691 19.0945L4.24879 18.0609C6.05113 20.3648 8.85426 21.8438 12.0043 21.8438C17.3761 21.8438 21.7425 17.5383 21.8433 12.1922C21.8439 12.1672 21.8396 12.1423 21.8304 12.119C21.8213 12.0957 21.8076 12.0745 21.7901 12.0566C21.7726 12.0387 21.7517 12.0244 21.7287 12.0147C21.7056 12.005 21.6808 12 21.6558 12V12Z" fill="#313131"/>
</svg>
