<svg width="16" height="16" viewBox="0 0 16 16" fill="none" xmlns="http://www.w3.org/2000/svg">
<path d="M12.8777 10.9359C12.4866 10.5445 12.0296 10.2251 11.5277 9.99219C12.2355 9.41875 12.6871 8.54375 12.6871 7.5625C12.6871 5.83125 11.2433 4.41094 9.51205 4.4375C7.80736 4.46406 6.43393 5.85313 6.43393 7.5625C6.43393 8.54375 6.88705 9.41875 7.5933 9.99219C7.09128 10.2249 6.63427 10.5444 6.2433 10.9359C5.39018 11.7906 4.9058 12.9187 4.87455 14.1219C4.87413 14.1386 4.87706 14.1551 4.88315 14.1707C4.88925 14.1862 4.89839 14.2004 4.91004 14.2123C4.92169 14.2242 4.93561 14.2337 4.95098 14.2402C4.96636 14.2467 4.98287 14.25 4.99955 14.25H5.87455C5.94174 14.25 5.99799 14.1969 5.99955 14.1297C6.02924 13.2234 6.39643 12.375 7.04174 11.7312C7.37196 11.3993 7.76474 11.1361 8.19735 10.9569C8.62996 10.7778 9.09381 10.6862 9.56205 10.6875C10.5136 10.6875 11.4089 11.0578 12.0824 11.7312C12.7261 12.375 13.0933 13.2234 13.1246 14.1297C13.1261 14.1969 13.1824 14.25 13.2496 14.25H14.1246C14.1412 14.25 14.1577 14.2467 14.1731 14.2402C14.1885 14.2337 14.2024 14.2242 14.2141 14.2123C14.2257 14.2004 14.2349 14.1862 14.2409 14.1707C14.247 14.1551 14.25 14.1386 14.2496 14.1219C14.2183 12.9187 13.7339 11.7906 12.8777 10.9359ZM9.56205 9.5625C9.02768 9.5625 8.52455 9.35469 8.14799 8.97656C7.95901 8.78907 7.80973 8.56544 7.70906 8.319C7.60839 8.07256 7.5584 7.80837 7.56205 7.54219C7.56674 7.02969 7.77143 6.53438 8.12924 6.16719C8.50424 5.78281 9.0058 5.56875 9.54174 5.5625C10.0714 5.55781 10.5855 5.76406 10.9636 6.13438C11.3511 6.51406 11.5636 7.02188 11.5636 7.5625C11.5636 8.09688 11.3558 8.59844 10.9777 8.97656C10.7922 9.16296 10.5715 9.31072 10.3285 9.4113C10.0856 9.51187 9.82503 9.56327 9.56205 9.5625ZM5.64799 7.975C5.63393 7.83906 5.62611 7.70156 5.62611 7.5625C5.62611 7.31406 5.64955 7.07188 5.6933 6.83594C5.70424 6.77969 5.67455 6.72188 5.62299 6.69844C5.41049 6.60313 5.21518 6.47188 5.04643 6.30625C4.84758 6.11345 4.69111 5.88132 4.587 5.62466C4.48288 5.36801 4.43341 5.09247 4.44174 4.81563C4.4558 4.31406 4.65736 3.8375 5.00893 3.47813C5.39486 3.08281 5.91361 2.86719 6.46518 2.87344C6.96361 2.87813 7.44486 3.07031 7.80893 3.41094C7.93236 3.52656 8.03861 3.65469 8.12768 3.79219C8.15893 3.84063 8.21986 3.86094 8.27299 3.84219C8.54799 3.74688 8.83861 3.67969 9.13705 3.64844C9.22455 3.63906 9.27455 3.54531 9.23549 3.46719C8.72768 2.4625 7.69018 1.76875 6.49018 1.75C4.75736 1.72344 3.31361 3.14375 3.31361 4.87344C3.31361 5.85469 3.76518 6.72969 4.47299 7.30313C3.97611 7.53281 3.5183 7.85 3.12143 8.24688C2.26518 9.10156 1.7808 10.2297 1.74955 11.4344C1.74913 11.4511 1.75206 11.4676 1.75815 11.4832C1.76425 11.4987 1.77339 11.5129 1.78504 11.5248C1.79669 11.5367 1.81061 11.5462 1.82598 11.5527C1.84136 11.5592 1.85787 11.5625 1.87455 11.5625H2.75111C2.8183 11.5625 2.87455 11.5094 2.87611 11.4422C2.9058 10.5359 3.27299 9.6875 3.9183 9.04375C4.37768 8.58438 4.94018 8.26563 5.55424 8.11094C5.61518 8.09531 5.6558 8.0375 5.64799 7.975V7.975Z" fill="white"/>
</svg>
