<svg width="16" height="16" viewBox="0 0 16 16" fill="none" xmlns="http://www.w3.org/2000/svg">
<path d="M13.6974 3.74257C13.6896 3.7285 13.6787 3.71444 13.6662 3.7035C13.588 3.62538 13.4615 3.62538 13.3833 3.7035L10.6912 6.39569L9.63022 5.33475L12.324 2.641C12.3365 2.6285 12.3458 2.616 12.3552 2.60194C12.4115 2.50663 12.3802 2.38475 12.2849 2.3285C10.7505 1.42225 8.74116 1.63006 7.42085 2.94881C6.37397 3.99569 6.0271 5.48007 6.38179 6.81444L1.80366 11.3926C1.75679 11.4394 1.75991 11.516 1.80835 11.5644L4.45991 14.216C4.50835 14.2644 4.58647 14.2676 4.63179 14.2207L9.20835 9.64413C10.5443 10.0004 12.0287 9.65507 13.0771 8.60663C14.3958 7.28631 14.6037 5.27694 13.6974 3.74257ZM12.2818 7.80975C11.374 8.71757 10.0115 8.89257 8.92866 8.33475L8.79116 8.47225L8.7896 8.47069L4.50835 12.7535L3.27085 11.516L6.86616 7.92069C6.86616 7.92069 6.86616 7.92225 6.86772 7.92225L7.69272 7.09725C7.13491 6.01444 7.30991 4.65194 8.21772 3.74413C8.51051 3.45108 8.86311 3.22468 9.25142 3.08041C9.63974 2.93614 10.0546 2.8774 10.4677 2.90819L8.39116 4.98319C8.29737 5.07709 8.24469 5.20438 8.24469 5.3371C8.24469 5.46981 8.29737 5.5971 8.39116 5.691L10.3365 7.63632C10.4304 7.73011 10.5577 7.78279 10.6904 7.78279C10.8231 7.78279 10.9504 7.73011 11.0443 7.63632L13.1193 5.56132C13.1771 6.37069 12.8943 7.19881 12.2818 7.80975Z" fill="white"/>
</svg>
