<svg width="24" height="24" viewBox="0 0 24 24" fill="none" xmlns="http://www.w3.org/2000/svg">
<path d="M14.929 10.382H7.6165C7.51338 10.382 7.429 10.4664 7.429 10.5695V11.9758C7.429 12.0789 7.51338 12.1633 7.6165 12.1633H14.929C15.0321 12.1633 15.1165 12.0789 15.1165 11.9758V10.5695C15.1165 10.4664 15.0321 10.382 14.929 10.382ZM21.5853 20.3195L18.1634 16.8976C21.0251 13.4078 20.8259 8.23748 17.554 4.96794C14.0853 1.49685 8.45088 1.49685 4.96807 4.96794C1.49697 8.45076 1.49697 14.0851 4.96807 17.5539C8.2376 20.8258 13.4079 21.025 16.8978 18.1633L20.3196 21.5851C20.3946 21.6508 20.5142 21.6508 20.5774 21.5851L21.5853 20.5773C21.6509 20.514 21.6509 20.3945 21.5853 20.3195ZM16.3118 16.3117C13.5274 19.0937 9.01807 19.0937 6.23369 16.3117C3.45166 13.5273 3.45166 9.01794 6.23369 6.23357C9.01807 3.45154 13.5274 3.45154 16.3118 6.23357C19.0938 9.01794 19.0938 13.5273 16.3118 16.3117Z" fill="#313131"/>
</svg>
